<?xml version="1.0" encoding="utf-8"?>
<!-- Generator: Adobe Illustrator 18.1.1, SVG Export Plug-In . SVG Version: 6.00 Build 0)  -->
<svg version="1.1" id="Layer_1" xmlns="http://www.w3.org/2000/svg" xmlns:xlink="http://www.w3.org/1999/xlink" x="0px" y="0px"
	 viewBox="0 0 308 331.3" enable-background="new 0 0 308 331.3" xml:space="preserve">
<path fill="#FFFFFF" d="M276.1,67.5c-13.8,18.1-38.4,34.8-52.9,35.5c-14.5,0.7-27.5-14.5-39.1-28.3c-11.6-13.8-21-19.1-28.1-19.1
	s1.4,0-10.9,0c-12.3,0-20.4,13.9-32.7,24.8c-12.3,10.9-21,21.9-37.7,21.9c-16.7,0-36.2-21-44.2-32.6C22.5,58.1,0-5,0,4.5
	s18.1,151.5,36.2,188.4c18.1,36.9,76.1,138.4,119.7,138.4s100.6-96.4,119.4-142.1C294.2,143.5,308,0,308,0S289.9,49.4,276.1,67.5z
	 M124.6,228.7c-6.6,0-10.7-5.7-10.7-12.3v-20.9c0-6.6,4.1-11.8,10.7-11.8h11.7l-10.2,45H124.6z M152.9,228.7h-22.7l10.2-45h12.5
	V228.7z M139.9,142.7c-0.9,4.7-5,8.2-10,8.2c-5.6,0-10.1-4.5-10.1-10.1c0-5.6,4.5-10.1,10.1-10.1c4.9,0,9,3.5,9.9,8.1H169
	c0.9-4.6,5-8.1,9.9-8.1c5.6,0,10.1,4.5,10.1,10.1c0,5.6-4.5,10.1-10.1,10.1c-4.9,0-9-3.5-10-8.2H139.9z M156.9,228.7v-45h10.7
	l10.2,45H156.9z M199.9,216.4c0,6.6-6,12.3-12.6,12.3h-5.4l-10.2-45h15.6c6.6,0,12.6,5.2,12.6,11.8V216.4z"/>
</svg>
