<?xml version="1.0" encoding="utf-8"?>
<!-- Generator: Adobe Illustrator 18.1.1, SVG Export Plug-In . SVG Version: 6.00 Build 0)  -->
<svg version="1.1" id="Layer_2" xmlns="http://www.w3.org/2000/svg" xmlns:xlink="http://www.w3.org/1999/xlink" x="0px" y="0px"
	 viewBox="18.4 214.6 621.6 336" enable-background="new 18.4 214.6 621.6 336" xml:space="preserve">
<ellipse fill="#0D9534" cx="321.8" cy="286.3" rx="225" ry="71.8"/>
<path fill="#0D9534" d="M473.4,354.7c-127.7,29.1-218.6,14.1-242,11.1c-23.5-3-121.7-8-156.9-73.7l-56,153.2
	c0,0-4.1,75.4,215.9,98.6c66.3,9.4,142.2,8.4,201.2,0c50.7-6.7,192.7-30.5,204.5-98.6c-32.2-82.8-69.8-153.2-69.8-153.2
	S563.5,334.2,473.4,354.7z"/>
<g>
	<path fill="#FFFFFF" d="M160,406.5l25.1,5.4c19.8,4.2,25.1,18.2,17.5,36.9c-7.5,18.6-24.2,28-42.2,24.1c-9.2-2-17.7-4.7-24.4-7
		L160,406.5z M159.6,457.1l5.3,1.1c9.7,2.1,14.5-5.2,17.9-13.7c2.1-5.1,5.7-16.3-4.9-18.5l-4.4-0.9L159.6,457.1z"/>
	<path fill="#FFFFFF" d="M247.9,484l-45.1-5.4l19.4-61.1l44.2,5.3l-6.1,15.6l-24.1-2.9l-2.1,7l21.4,2.6l-3.7,15.4l-22.3-2.7
		l-2.2,7.4l26.1,4L247.9,484z"/>
	<path fill="#FFFFFF" d="M255.2,477l25.5-24.4l-13.1-30.2l22.9,0.8l5.4,15.5l0.7,0l18.4-18.3l11.9,12.1l-21.6,20.9l12.8,33.7
		l-23.8-0.8l-6.4-17.3l-0.9,0l-19.1,19.6L255.2,477z"/>
	<path fill="#FFFFFF" d="M382.2,437.7l-19,1.8l-4.3,47l-20.5,0l5.9-46.2l-18.5,1.7l2.3-18.1l54.5-3.4L382.2,437.7z"/>
	<path fill="#FFFFFF" d="M431.6,478l-45,6.2l3.3-64l44.1-6.1l-2,16.6l-24.1,3.3l-0.3,7.3l21.4-2.9l0.3,15.9l-22.3,3.1l-0.3,7.8
		l26.2-2.7L431.6,478z"/>
	<path fill="#FFFFFF" d="M449.5,474.2l-10.3-63l21.2-8c20.3-7.7,31.8-3,34,11.9c1.9,12.2-9.3,21.6-9.3,21.6l0.1,0.9l19.2,14.5
		l-18.9,12l-19-16.4l-1.7,0.6l3.4,19.7L449.5,474.2z M462.5,434.8c10.2-3.4,14.2-6.6,13.4-12.5c-0.9-5.9-5.3-5.4-13-2.8l-3,1
		L462.5,434.8z"/>
</g>
</svg>
