<?xml version="1.0" encoding="utf-8"?>
<!-- Generator: Adobe Illustrator 17.1.0, SVG Export Plug-In . SVG Version: 6.00 Build 0)  -->
<!DOCTYPE svg PUBLIC "-//W3C//DTD SVG 1.1//EN" "http://www.w3.org/Graphics/SVG/1.1/DTD/svg11.dtd">
<svg version="1.1" id="Layer_2" xmlns="http://www.w3.org/2000/svg" xmlns:xlink="http://www.w3.org/1999/xlink" x="0px" y="0px"
	 viewBox="0 0 190.9 100.2" enable-background="new 0 0 190.9 100.2" xml:space="preserve">
<ellipse fill="#0D9534" cx="96" cy="21.4" rx="67.1" ry="21.4"/>
<path fill="#0D9534" d="M141.2,41.8C103.1,50.5,76,46,69,45.1s-36.3-2.4-46.8-22L5.5,68.8c0,0-1.2,22.5,64.4,29.4
	c19.8,2.8,42.4,2.5,60,0c15.1-2,57.5-9.1,61-29.4c-9.6-24.7-20.8-45.7-20.8-45.7S168.1,35.7,141.2,41.8z"/>
<path fill="none" d="M0,32.8c0,0-1.2,39.5,64.4,46.4c19.8,2.8,42.4,2.5,60,0c15.1-2,57.5-16.1,61-36.4"/>
<text transform="matrix(0.9845 0.1755 -0.1755 0.9845 47.9066 76.6821)"><tspan x="0" y="0" fill="#FFFFFF" font-family="'GoodDog'" font-size="32">D</tspan><tspan x="17.9" y="-0.4" fill="#FFFFFF" font-family="'GoodDog'" font-size="32" rotate="-4">e</tspan><tspan x="34.5" y="-1.7" fill="#FFFFFF" font-family="'GoodDog'" font-size="32" rotate="-9">x</tspan><tspan x="55.1" y="-5.3" fill="#FFFFFF" font-family="'GoodDog'" font-size="32" rotate="-13.8">t</tspan><tspan x="73.4" y="-10" fill="#FFFFFF" font-family="'GoodDog'" font-size="32" rotate="-20.4">e</tspan><tspan x="89.5" y="-16.7" fill="#FFFFFF" font-family="'GoodDog'" font-size="32" rotate="-29.1">r</tspan></text>
</svg>
