<?xml version="1.0" encoding="utf-8"?>
<!-- Generator: Adobe Illustrator 17.1.0, SVG Export Plug-In . SVG Version: 6.00 Build 0)  -->
<!DOCTYPE svg PUBLIC "-//W3C//DTD SVG 1.1//EN" "http://www.w3.org/Graphics/SVG/1.1/DTD/svg11.dtd">
<svg version="1.1" id="Layer_2" xmlns="http://www.w3.org/2000/svg" xmlns:xlink="http://www.w3.org/1999/xlink" x="0px" y="0px"
	 viewBox="0 142.5 600 314.9" enable-background="new 0 142.5 600 314.9" xml:space="preserve">
<ellipse fill="#0D9534" cx="301.7" cy="209.8" rx="210.9" ry="67.3"/>
<path fill="#0D9534" d="M443.8,273.9c-119.7,27.3-204.9,13.2-226.9,10.4s-114.1-7.5-147.1-69.1L17.3,358.8c0,0-3.8,70.7,202.4,92.4
	c62.2,8.8,133.3,7.9,188.6,0c47.5-6.3,180.7-28.6,191.7-92.4c-30.2-77.6-65.4-143.6-65.4-143.6S528.3,254.7,443.8,273.9z"/>
<path fill="none" d="M0,245.6c0,0-3.8,124.1,202.4,145.8c62.2,8.8,133.3,7.9,188.6,0c47.5-6.3,180.7-50.6,191.7-114.4"/>
<text transform="matrix(0.9845 0.1755 -0.1755 0.9845 150.5707 383.5497)" fill="#FFFFFF" font-family="'GoodDog'" font-size="100.5783">D</text>
<text transform="matrix(0.9845 0.1755 -0.1755 0.9845 206.1794 392.1831)" fill="#FFFFFF" font-family="'GoodDog'" font-size="100.5783">e</text>
<text transform="matrix(0.9845 0.1755 -0.1755 0.9845 258.2612 397.3197)" fill="#FFFFFF" font-family="'GoodDog'" font-size="100.5783">x</text>
<text transform="matrix(0.9845 0.1755 -0.1755 0.9845 323.9895 397.5408)" fill="#FFFFFF" font-family="'GoodDog'" font-size="100.5783">t</text>
<text transform="matrix(0.9845 0.1755 -0.1755 0.9845 383.2078 393.0913)" fill="#FFFFFF" font-family="'GoodDog'" font-size="100.5783">e</text>
<text transform="matrix(0.9845 0.1755 -0.1755 0.9845 436.7206 381.243)" fill="#FFFFFF" font-family="'GoodDog'" font-size="100.5783">r</text>
<g>
	<circle fill="#7C5423" stroke="#000000" stroke-width="2" stroke-miterlimit="10" cx="202.1" cy="240.6" r="25.1"/>
	<circle fill="#7C5423" stroke="#000000" stroke-width="2" stroke-miterlimit="10" cx="233.2" cy="245.6" r="25.1"/>
	<circle fill="#7C5423" stroke="#000000" stroke-width="2" stroke-miterlimit="10" cx="184.8" cy="238.1" r="25.1"/>
	<circle fill="#7C5423" stroke="#000000" stroke-width="2" stroke-miterlimit="10" cx="261.5" cy="240.6" r="25.1"/>
	<circle fill="#7C5423" stroke="#000000" stroke-width="2" stroke-miterlimit="10" cx="276.6" cy="251.6" r="25.1"/>
	<circle fill="#7C5423" stroke="#000000" stroke-width="2" stroke-miterlimit="10" cx="299.8" cy="226.1" r="25.1"/>
	<circle fill="#7C5423" stroke="#000000" stroke-width="2" stroke-miterlimit="10" cx="333.8" cy="240.6" r="25.1"/>
	<circle fill="#7C5423" stroke="#000000" stroke-width="2" stroke-miterlimit="10" cx="353" cy="215.1" r="25.1"/>
	<circle fill="#7C5423" stroke="#000000" stroke-width="2" stroke-miterlimit="10" cx="389.7" cy="215.1" r="25.1"/>
	<circle fill="#7C5423" stroke="#000000" stroke-width="2" stroke-miterlimit="10" cx="421.2" cy="195" r="25.1"/>
	<circle fill="#7C5423" stroke="#000000" stroke-width="2" stroke-miterlimit="10" cx="448.8" cy="220.5" r="25.1"/>
	<circle fill="#7C5423" stroke="#000000" stroke-width="2" stroke-miterlimit="10" cx="378.1" cy="238.1" r="25.1"/>
	<circle fill="#7C5423" stroke="#000000" stroke-width="2" stroke-miterlimit="10" cx="419" cy="238.1" r="25.1"/>
	<circle fill="#7C5423" stroke="#000000" stroke-width="2" stroke-miterlimit="10" cx="444.1" cy="204.5" r="25.1"/>
	<circle fill="#7C5423" stroke="#000000" stroke-width="2" stroke-miterlimit="10" cx="384.4" cy="198.5" r="25.1"/>
	<circle fill="#7C5423" stroke="#000000" stroke-width="2" stroke-miterlimit="10" cx="347.3" cy="184.3" r="25.1"/>
	<circle fill="#7C5423" stroke="#000000" stroke-width="2" stroke-miterlimit="10" cx="316.8" cy="179" r="25.1"/>
	<circle fill="#7C5423" stroke="#000000" stroke-width="2" stroke-miterlimit="10" cx="281.3" cy="181.5" r="25.1"/>
	<circle fill="#7C5423" stroke="#000000" stroke-width="2" stroke-miterlimit="10" cx="487.5" cy="209.8" r="25.1"/>
	<circle fill="#7C5423" stroke="#000000" stroke-width="2" stroke-miterlimit="10" cx="116.3" cy="209.8" r="25.1"/>
	<circle fill="#7C5423" stroke="#000000" stroke-width="2" stroke-miterlimit="10" cx="124.1" cy="217.3" r="25.1"/>
	<circle fill="#7C5423" stroke="#000000" stroke-width="2" stroke-miterlimit="10" cx="283.8" cy="195" r="25.1"/>
	<circle fill="#7C5423" stroke="#000000" stroke-width="2" stroke-miterlimit="10" cx="241.4" cy="184.3" r="25.1"/>
	<circle fill="#7C5423" stroke="#000000" stroke-width="2" stroke-miterlimit="10" cx="226" cy="192.2" r="25.1"/>
	<circle fill="#7C5423" stroke="#000000" stroke-width="2" stroke-miterlimit="10" cx="184.8" cy="198.5" r="25.1"/>
	<circle fill="#7C5423" stroke="#000000" stroke-width="2" stroke-miterlimit="10" cx="151.5" cy="201" r="25.1"/>
	<circle fill="#7C5423" stroke="#000000" stroke-width="2" stroke-miterlimit="10" cx="182.6" cy="206.7" r="25.1"/>
	<circle fill="#7C5423" stroke="#000000" stroke-width="2" stroke-miterlimit="10" cx="149.3" cy="215.1" r="25.1"/>
	<circle fill="#7C5423" stroke="#000000" stroke-width="2" stroke-miterlimit="10" cx="276.6" cy="226.1" r="25.1"/>
	<circle fill="#7C5423" stroke="#000000" stroke-width="2" stroke-miterlimit="10" cx="141.7" cy="229.6" r="25.1"/>
	<circle fill="#7C5423" stroke="#000000" stroke-width="2" stroke-miterlimit="10" cx="159.7" cy="234.9" r="25.1"/>
	<circle fill="#7C5423" stroke="#000000" stroke-width="2" stroke-miterlimit="10" cx="176.6" cy="238.1" r="25.1"/>
	<circle fill="#7C5423" stroke="#000000" stroke-width="2" stroke-miterlimit="10" cx="197.4" cy="242.8" r="25.1"/>
	<circle fill="#7C5423" stroke="#000000" stroke-width="2" stroke-miterlimit="10" cx="241.4" cy="249.1" r="25.1"/>
	<circle fill="#7C5423" stroke="#000000" stroke-width="2" stroke-miterlimit="10" cx="219.7" cy="249.1" r="25.1"/>
	<circle fill="#7C5423" stroke="#000000" stroke-width="2" stroke-miterlimit="10" cx="312.1" cy="255.1" r="25.1"/>
	<circle fill="#7C5423" stroke="#000000" stroke-width="2" stroke-miterlimit="10" cx="362.4" cy="251.6" r="25.1"/>
	<circle fill="#7C5423" stroke="#000000" stroke-width="2" stroke-miterlimit="10" cx="389.7" cy="245.6" r="25.1"/>
	<circle fill="#7C5423" stroke="#000000" stroke-width="2" stroke-miterlimit="10" cx="405.8" cy="240.6" r="25.1"/>
	<circle fill="#7C5423" stroke="#000000" stroke-width="2" stroke-miterlimit="10" cx="444.1" cy="232.1" r="25.1"/>
	<circle fill="#7C5423" stroke="#000000" stroke-width="2" stroke-miterlimit="10" cx="339.1" cy="249.1" r="25.1"/>
	<circle fill="#7C5423" stroke="#000000" stroke-width="2" stroke-miterlimit="10" cx="258.4" cy="251.6" r="25.1"/>
	<circle fill="#7C5423" stroke="#000000" stroke-width="2" stroke-miterlimit="10" cx="327.8" cy="251.6" r="25.1"/>
	<circle fill="#7C5423" stroke="#000000" stroke-width="2" stroke-miterlimit="10" cx="344.2" cy="251.6" r="25.1"/>
	<circle fill="#7C5423" stroke="#000000" stroke-width="2" stroke-miterlimit="10" cx="423.7" cy="240.6" r="25.1"/>
	<circle fill="#7C5423" stroke="#000000" stroke-width="2" stroke-miterlimit="10" cx="469.6" cy="223.9" r="25.1"/>
	<circle fill="#7C5423" stroke="#000000" stroke-width="2" stroke-miterlimit="10" cx="202.1" cy="215.1" r="25.1"/>
	<circle fill="#7C5423" stroke="#000000" stroke-width="2" stroke-miterlimit="10" cx="230.7" cy="215.1" r="25.1"/>
	<circle fill="#7C5423" stroke="#000000" stroke-width="2" stroke-miterlimit="10" cx="301.7" cy="215.1" r="25.1"/>
	<circle fill="#7C5423" stroke="#000000" stroke-width="2" stroke-miterlimit="10" cx="319" cy="215.1" r="25.1"/>
	<circle fill="#7C5423" stroke="#000000" stroke-width="2" stroke-miterlimit="10" cx="263.7" cy="209.8" r="25.1"/>
</g>
</svg>
