<?xml version="1.0" encoding="utf-8"?>
<!-- Generator: Adobe Illustrator 17.1.0, SVG Export Plug-In . SVG Version: 6.00 Build 0)  -->
<!DOCTYPE svg PUBLIC "-//W3C//DTD SVG 1.1//EN" "http://www.w3.org/Graphics/SVG/1.1/DTD/svg11.dtd">
<svg version="1.1" id="Layer_2" xmlns="http://www.w3.org/2000/svg" xmlns:xlink="http://www.w3.org/1999/xlink" x="0px" y="0px"
	 viewBox="0 0 190.9 100.2" enable-background="new 0 0 190.9 100.2" xml:space="preserve">
<ellipse fill="#D9534F" cx="96" cy="21.4" rx="67.1" ry="21.4"/>
<path fill="#D9534F" d="M141.2,41.8C103.1,50.5,76,46,69,45.1s-36.3-2.4-46.8-22L5.5,68.8c0,0-1.2,22.5,64.4,29.4
	c19.8,2.8,42.4,2.5,60,0c15.1-2,57.5-9.1,61-29.4c-9.6-24.7-20.8-45.7-20.8-45.7S168.1,35.7,141.2,41.8z"/>
<path fill="none" d="M0,32.8c0,0-1.2,39.5,64.4,46.4c19.8,2.8,42.4,2.5,60,0c15.1-2,57.5-16.1,61-36.4"/>
<text transform="matrix(0.9845 0.1755 -0.1755 0.9845 47.9066 76.6821)"><tspan x="0" y="0" fill="#FFFFFF" font-family="'GoodDog'" font-size="32">D</tspan><tspan x="17.9" y="-0.4" fill="#FFFFFF" font-family="'GoodDog'" font-size="32" rotate="-4">e</tspan><tspan x="34.5" y="-1.7" fill="#FFFFFF" font-family="'GoodDog'" font-size="32" rotate="-9">x</tspan><tspan x="55.1" y="-5.3" fill="#FFFFFF" font-family="'GoodDog'" font-size="32" rotate="-13.8">t</tspan><tspan x="73.4" y="-10" fill="#FFFFFF" font-family="'GoodDog'" font-size="32" rotate="-20.4">e</tspan><tspan x="89.5" y="-16.7" fill="#FFFFFF" font-family="'GoodDog'" font-size="32" rotate="-29.1">r</tspan></text>
<g>
	<circle fill="#54521E" cx="64.3" cy="31.2" r="8"/>
	<circle fill="#54521E" cx="74.2" cy="32.8" r="8"/>
	<circle fill="#54521E" cx="58.8" cy="30.4" r="8"/>
	<circle fill="#54521E" cx="83.2" cy="31.2" r="8"/>
	<circle fill="#54521E" cx="88" cy="34.7" r="8"/>
	<circle fill="#54521E" cx="95.4" cy="26.6" r="8"/>
	<circle fill="#54521E" cx="106.2" cy="31.2" r="8"/>
	<circle fill="#54521E" cx="112.3" cy="23.1" r="8"/>
	<circle fill="#54521E" cx="124" cy="23.1" r="8"/>
	<circle fill="#54521E" cx="134" cy="16.7" r="8"/>
	<circle fill="#54521E" cx="142.8" cy="24.8" r="8"/>
	<circle fill="#54521E" cx="120.3" cy="30.4" r="8"/>
	<circle fill="#54521E" cx="133.3" cy="30.4" r="8"/>
	<circle fill="#54521E" cx="141.3" cy="19.7" r="8"/>
	<circle fill="#54521E" cx="122.3" cy="17.8" r="8"/>
	<circle fill="#54521E" cx="110.5" cy="13.3" r="8"/>
	<circle fill="#54521E" cx="100.8" cy="11.6" r="8"/>
	<circle fill="#54521E" cx="89.5" cy="12.4" r="8"/>
	<circle fill="#54521E" cx="155.1" cy="21.4" r="8"/>
	<circle fill="#54521E" cx="37" cy="21.4" r="8"/>
	<circle fill="#54521E" cx="39.5" cy="23.8" r="8"/>
	<circle fill="#54521E" cx="90.3" cy="16.7" r="8"/>
	<circle fill="#54521E" cx="76.8" cy="13.3" r="8"/>
	<circle fill="#54521E" cx="71.9" cy="15.8" r="8"/>
	<circle fill="#54521E" cx="58.8" cy="17.8" r="8"/>
	<circle fill="#54521E" cx="48.2" cy="18.6" r="8"/>
	<circle fill="#54521E" cx="58.1" cy="20.4" r="8"/>
	<circle fill="#54521E" cx="47.5" cy="23.1" r="8"/>
	<circle fill="#54521E" cx="88" cy="26.6" r="8"/>
	<circle fill="#54521E" cx="45.1" cy="27.7" r="8"/>
	<circle fill="#54521E" cx="50.8" cy="29.4" r="8"/>
	<circle fill="#54521E" cx="56.2" cy="30.4" r="8"/>
	<circle fill="#54521E" cx="62.8" cy="31.9" r="8"/>
	<circle fill="#54521E" cx="76.8" cy="33.9" r="8"/>
	<circle fill="#54521E" cx="69.9" cy="33.9" r="8"/>
	<circle fill="#54521E" cx="99.3" cy="35.8" r="8"/>
	<circle fill="#54521E" cx="115.3" cy="34.7" r="8"/>
	<circle fill="#54521E" cx="124" cy="32.8" r="8"/>
	<circle fill="#54521E" cx="129.1" cy="31.2" r="8"/>
	<circle fill="#54521E" cx="141.3" cy="28.5" r="8"/>
	<circle fill="#54521E" cx="107.9" cy="33.9" r="8"/>
	<circle fill="#54521E" cx="82.2" cy="34.7" r="8"/>
	<circle fill="#54521E" cx="104.3" cy="34.7" r="8"/>
	<circle fill="#54521E" cx="109.5" cy="34.7" r="8"/>
	<circle fill="#54521E" cx="134.8" cy="31.2" r="8"/>
	<circle fill="#54521E" cx="149.4" cy="25.9" r="8"/>
	<circle fill="#54521E" cx="64.3" cy="23.1" r="8"/>
	<circle fill="#54521E" cx="73.4" cy="23.1" r="8"/>
	<circle fill="#54521E" cx="96" cy="23.1" r="8"/>
	<circle fill="#54521E" cx="101.5" cy="23.1" r="8"/>
	<circle fill="#54521E" cx="83.9" cy="21.4" r="8"/>
</g>
</svg>
