<?xml version="1.0" encoding="utf-8"?>
<!-- Generator: Adobe Illustrator 17.1.0, SVG Export Plug-In . SVG Version: 6.00 Build 0)  -->
<!DOCTYPE svg PUBLIC "-//W3C//DTD SVG 1.1//EN" "http://www.w3.org/Graphics/SVG/1.1/DTD/svg11.dtd">
<svg version="1.1" id="Layer_2" xmlns="http://www.w3.org/2000/svg" xmlns:xlink="http://www.w3.org/1999/xlink" x="0px" y="0px"
	 viewBox="0 142.5 600 314.9" enable-background="new 0 142.5 600 314.9" xml:space="preserve">
<ellipse fill="#428BCA" cx="301.7" cy="209.8" rx="210.9" ry="67.3"/>
<path fill="#428BCA" d="M443.8,273.9c-119.7,27.3-204.9,13.2-226.9,10.4s-114.1-7.5-147.1-69.1L17.3,358.8c0,0-3.8,70.7,202.4,92.4
	c62.2,8.8,133.3,7.9,188.6,0c47.5-6.3,180.7-28.6,191.7-92.4c-30.2-77.6-65.4-143.6-65.4-143.6S528.3,254.7,443.8,273.9z"/>
<path fill="none" d="M0,245.6c0,0-3.8,124.1,202.4,145.8c62.2,8.8,133.3,7.9,188.6,0c47.5-6.3,180.7-50.6,191.7-114.4"/>
<text transform="matrix(0.9845 0.1755 -0.1755 0.9845 150.5707 383.5497)" fill="#FFFFFF" font-family="'GoodDog'" font-size="100.5783">D</text>
<text transform="matrix(0.9845 0.1755 -0.1755 0.9845 206.1794 392.1831)" fill="#FFFFFF" font-family="'GoodDog'" font-size="100.5783">e</text>
<text transform="matrix(0.9845 0.1755 -0.1755 0.9845 258.2612 397.3197)" fill="#FFFFFF" font-family="'GoodDog'" font-size="100.5783">x</text>
<text transform="matrix(0.9845 0.1755 -0.1755 0.9845 323.9895 397.5408)" fill="#FFFFFF" font-family="'GoodDog'" font-size="100.5783">t</text>
<text transform="matrix(0.9845 0.1755 -0.1755 0.9845 383.2078 393.0913)" fill="#FFFFFF" font-family="'GoodDog'" font-size="100.5783">e</text>
<text transform="matrix(0.9845 0.1755 -0.1755 0.9845 436.7206 381.243)" fill="#FFFFFF" font-family="'GoodDog'" font-size="100.5783">r</text>
</svg>
