<?xml version="1.0" encoding="utf-8"?>
<!-- Generator: Adobe Illustrator 17.1.0, SVG Export Plug-In . SVG Version: 6.00 Build 0)  -->
<!DOCTYPE svg PUBLIC "-//W3C//DTD SVG 1.1//EN" "http://www.w3.org/Graphics/SVG/1.1/DTD/svg11.dtd">
<svg version="1.1" id="Layer_1" xmlns="http://www.w3.org/2000/svg" xmlns:xlink="http://www.w3.org/1999/xlink" x="0px" y="0px"
	 viewBox="388 276.5 454.1 292" enable-background="new 388 276.5 454.1 292" xml:space="preserve">
<g id="Layer_1_1_">
</g>
<g id="Layer_2">
	<polygon fill="#933E2C" points="777.5,324.7 776.7,311.4 776.1,311.4 776.1,309.5 775.4,309.3 774.9,307.6 774,307.6 774,306.4 
		773.4,304.7 774,302.5 774.6,302 774.6,300.2 775.2,300.2 775.2,298.1 775.4,297.1 775.4,295.5 780.7,288.6 796,287.6 798.9,294.1 
		799.6,294.1 799.6,296.3 800.1,296.7 800.1,298.7 799.2,299.4 799.3,301.6 797.9,302 798.6,314.8 799.3,316.1 800.1,324.2 	"/>
	<rect x="404" y="339.4" fill="#EDD4B2" width="420.9" height="159.5"/>
	<polygon fill="#353535" points="388,339.4 446.6,301.5 747.2,301.5 836.1,339.4 	"/>
	<polygon fill="#FFFFFF" points="548,449.7 548,331.2 612,287.4 682,334 682,449.7 668.4,449.7 668.5,351.3 559.7,351.3 
		559.9,449.7 	"/>
	<polygon fill="#FFFFFF" points="525.5,346.6 525.5,336.5 612,276.5 701,334.1 701,346.6 612,287.4 	"/>
	<polygon fill="#EDD4B2" points="558,341.9 558,324.2 612,287.4 668.5,325 668.5,341.9 	"/>
	<rect x="590.5" y="351.8" fill="#FFFFFF" width="49" height="92.8"/>
	<rect x="598" y="360.4" fill="#848484" width="33.8" height="64.4"/>
	<rect x="427.9" y="360.4" fill="#FFFFFF" width="82.5" height="69.7"/>
	<rect x="433.5" y="364.6" fill="#848484" width="71.4" height="60.2"/>
	<rect x="467.3" y="364.6" fill="#FFFFFF" width="6.9" height="60.2"/>
	<rect x="417.6" y="339.4" fill="#FFFFFF" width="6.9" height="7.1"/>
	<rect x="446.7" y="339.4" fill="#FFFFFF" width="6.9" height="7.1"/>
	<rect x="475.9" y="339.4" fill="#FFFFFF" width="6.9" height="7.1"/>
	<rect x="505.2" y="339.4" fill="#FFFFFF" width="6.9" height="7.1"/>
	<rect x="548" y="449.7" fill="#CCBCA8" width="134" height="49.2"/>
	<rect x="598" y="360.4" fill="none" stroke="#FFFFFF" stroke-miterlimit="10" width="11.2" height="12.9"/>
	<rect x="609.2" y="360.4" fill="none" stroke="#FFFFFF" stroke-miterlimit="10" width="11.2" height="12.9"/>
	<rect x="620.4" y="360.4" fill="none" stroke="#FFFFFF" stroke-miterlimit="10" width="11.2" height="12.9"/>
	<rect x="598" y="373.2" fill="none" stroke="#FFFFFF" stroke-miterlimit="10" width="11.2" height="12.9"/>
	<rect x="609.2" y="373.2" fill="none" stroke="#FFFFFF" stroke-miterlimit="10" width="11.2" height="12.9"/>
	<rect x="620.4" y="373.2" fill="none" stroke="#FFFFFF" stroke-miterlimit="10" width="11.2" height="12.9"/>
	<rect x="598" y="386.1" fill="none" stroke="#FFFFFF" stroke-miterlimit="10" width="11.2" height="12.9"/>
	<rect x="609.2" y="386.1" fill="none" stroke="#FFFFFF" stroke-miterlimit="10" width="11.2" height="12.9"/>
	<rect x="620.4" y="386.1" fill="none" stroke="#FFFFFF" stroke-miterlimit="10" width="11.2" height="12.9"/>
	<rect x="598" y="399" fill="none" stroke="#FFFFFF" stroke-miterlimit="10" width="11.2" height="12.9"/>
	<rect x="609.2" y="399" fill="none" stroke="#FFFFFF" stroke-miterlimit="10" width="11.2" height="12.9"/>
	<rect x="620.4" y="399" fill="none" stroke="#FFFFFF" stroke-miterlimit="10" width="11.2" height="12.9"/>
	<rect x="598" y="411.8" fill="none" stroke="#FFFFFF" stroke-miterlimit="10" width="11.2" height="12.9"/>
	<rect x="609.2" y="411.8" fill="none" stroke="#FFFFFF" stroke-miterlimit="10" width="11.2" height="12.9"/>
	<rect x="620.4" y="411.8" fill="none" stroke="#FFFFFF" stroke-miterlimit="10" width="11.2" height="12.9"/>
	<polygon fill="#D8B99A" points="664.3,568.5 565.4,568.5 579.1,455.9 650.4,455.9 	"/>
	<rect x="565.4" y="552.2" fill="#BB9C7E" width="98.9" height="16.4"/>
	<rect x="567.1" y="533.3" fill="#BB9C7E" width="95.4" height="16.4"/>
	<rect x="569.4" y="514.4" fill="#BB9C7E" width="90.8" height="16.4"/>
	<rect x="571.6" y="497.2" fill="#BB9C7E" width="86.2" height="14.7"/>
	<rect x="574" y="481.7" fill="#BB9C7E" width="81.7" height="12.9"/>
	<rect x="576.2" y="467.9" fill="#BB9C7E" width="77.1" height="11.2"/>
	<rect x="579.1" y="455.9" fill="#BB9C7E" width="71.4" height="9.5"/>
	<rect x="576.2" y="410.1" fill="#B0AFB0" width="14.3" height="4.4"/>
	<line fill="none" stroke="#FFFFFF" stroke-width="2" stroke-miterlimit="10" x1="583" y1="405.5" x2="559.9" y2="405.5"/>
	<line fill="none" stroke="#FFFFFF" stroke-width="2" stroke-miterlimit="10" x1="670.6" y1="405.5" x2="646.7" y2="405.5"/>
	<line fill="none" stroke="#FFFFFF" stroke-width="2" stroke-miterlimit="10" x1="663.2" y1="449.7" x2="663.2" y2="406.3"/>
	<line fill="none" stroke="#FFFFFF" stroke-width="2" stroke-miterlimit="10" x1="653.8" y1="449.7" x2="653.8" y2="405.5"/>
	<line fill="none" stroke="#FFFFFF" stroke-width="2" stroke-miterlimit="10" x1="575.6" y1="449.7" x2="575.6" y2="406.3"/>
	<line fill="none" stroke="#FFFFFF" stroke-width="2" stroke-miterlimit="10" x1="565.4" y1="449.7" x2="565.4" y2="405.5"/>
	<rect x="569.4" y="374.5" fill="#FFFFFF" stroke="#5480C1" stroke-miterlimit="10" width="4.8" height="8.1"/>
	<rect x="583.8" y="381.7" fill="#FFFFFF" stroke="#5480C1" stroke-miterlimit="10" width="4.8" height="7.9"/>
	<g>
		<rect x="570.7" y="374.5" fill="none" width="6.7" height="16.2"/>
		<text transform="matrix(1 0 0 1 570.6615 380.8855)" fill="#5480C1" font-family="'Fontin-Regular'" font-size="8.5564">1</text>
	</g>
	<rect x="576.2" y="378" fill="#FFFFFF" stroke="#5480C1" stroke-miterlimit="10" width="4.8" height="8.1"/>
	<g>
		<polyline fill="#8C1824" points="542.3,373.8 547.1,365.4 546.1,362.7 542,370.3 542.3,373.8 		"/>
		<polygon fill="#C5C7D2" points="545.2,360.4 541.8,366.8 542,370.3 546.1,362.7 		"/>
		<polygon fill="#8C1824" points="544.4,358.6 541.6,364.3 541.8,366.8 545.2,360.4 		"/>
		<polygon fill="#B0AFC2" points="541.2,362.2 541.5,365.1 544.9,358.6 543.5,356 		"/>
		<polygon fill="#8C1824" points="541.5,361.5 540.5,358.9 543.5,353.2 543.8,355.5 		"/>
		<path fill="#B0AFC2" d="M542.7,351l-0.9,0.7l0.7,1.1c-0.5,0.9-2.1,3.3-2.1,3.3l0.5,2.4l2.6-5.1L542.7,351z"/>
		<polygon fill="#C5C7D2" points="533.5,366 536.5,376.7 537.4,367.8 537,364.7 		"/>
		<polygon fill="#8C1824" points="531.5,367.5 535.4,385.6 536.4,376.5 533.5,366 		"/>
		<path fill="#C5C7D2" d="M531.5,367.5l-0.8,7.8c0,0,0.8,12,3.7,18.9c2.9,6.9,1.1-9.5,1.1-9.5S532.3,371.1,531.5,367.5z"/>
		<path fill="#8C1824" d="M533.6,403.1l0.9-8.8c0,0-3.3-12.9-3.8-19.5C530.7,374.6,525.5,387.3,533.6,403.1"/>
		<path fill="#C5C7D2" d="M532.7,414.1l3.2-1.1c0,0-6.3-20.3-6.1-32.6C528.6,388.3,525.5,402.5,532.7,414.1z"/>
		<path fill="#8C1824" d="M532.7,414.1c0,0-5.3-12.3-4.6-20.3c0.8-8.1-2.8,13.9,2.2,21.8L532.7,414.1z"/>
		<path fill="#C5C7D2" d="M527.3,417.3l3.2-1.6c0,0-3.2-8.3-2.6-14C528.2,395.9,526.1,409.5,527.3,417.3z"/>
		<polygon fill="#8C1824" points="533.1,407.2 537.3,361.8 540.1,362.3 536.5,407.6 		"/>
		<polygon fill="#B0AFC2" points="540.2,408.1 542.7,379.4 541.5,362.3 540.1,362.3 536.5,407.6 		"/>
		<polygon fill="#8C1824" points="543.5,409.6 543.5,390.2 542.7,380.6 540.2,408.1 		"/>
		<polygon fill="#B0AFC2" points="544.9,410.3 543.8,392.7 543.5,409.6 		"/>
		<path fill="#171B45" d="M531.2,367.5c0,0,4.6-1.3,5.8-2.9s-0.4-1.2,0.8-2.1s3.8,0.5,3.8,0.5s0-4.9-0.5-6.9c-0.5-2,1.5-2.9,1.5-2.9
			s-1.1-0.9-0.1-1.6s-0.1-0.8-0.1-0.8l-4.6-17.8C537.8,333,530.7,362.3,531.2,367.5z"/>
	</g>
	<g>
		<rect x="577.5" y="378" fill="none" width="6.7" height="16.2"/>
		<text transform="matrix(1 0 0 1 577.5039 384.4808)" fill="#5480C1" font-family="'Fontin-Regular'" font-size="8.5564">1</text>
	</g>
	<text transform="matrix(1 0 0 1 584.1884 387.755)" fill="#5480C1" font-family="'Fontin-Regular'" font-size="7.1141">0</text>
	<line fill="none" stroke="#7B7663" stroke-width="2" stroke-miterlimit="10" x1="555.1" y1="393" x2="537" y2="331.6"/>
	<path fill="#656763" d="M744.1,497.9c4.4-9.1,9-15,13.5-26c1.3-3.3,1.8-6.3,3.8-9.5c4.6-7.3,1.3-14.4-2.1-26.5
		c-0.8-1.6-1.6-11.1-2.4-12.7c-6.3-12.9-20.1-16.5-37.1-17.8c-2-0.1-4-0.1-6.1-0.1c-9.5,0.1-12.8-4-20.6-9.5l2.5-0.7
		c6.1,3.7,11.5,7.3,18.7,6.9c2.4-0.1,4.4-0.1,6.1-0.1c4.9,0,8.3,0.7,15.4,4.1l-8.4-9.6c-6.9-7.8-12.5-9.6-22-13.7l4.4-1.6
		c7.8,3.6,13.9,6.5,20.5,11.7c-4.1-5.9-7.5-10.2-12.9-14.9l4.4-0.4c9.2,7.5,20.1,10.7,22,22.6l12.9,10.8c-4-6.1-8.2-12.1-7.1-18.1
		c0.4-2,1.6-4.2,3-6.5c2.4-3.6,5.3-7.4,7-10.4c0.4-9-0.8-11.7-4.8-19.7c5.9,7.8,8.1,14.1,7.3,23.8c11-10.6,10-18.6,10-36.6l1.6,15.7
		c1.1,11.2-3.3,18.2-10.8,26.5c-8.2,8.8-4.6,12,3.3,24.6c7-5.4,12.9-9,20.9-12.9c5.3-11.1,13.5-12.4,24.6-17.7
		c-11.5,6.1-16,6.5-20.5,18.5c5.5-0.5,11-0.9,16.6-1.2c13.5-0.8,14.7-5.7,23.2-16.4c-9,14.9-7.8,17.8-24.4,19.7
		c-7.7,0.9-14.7,2.2-21.9,6.6c-2.8,1.7-5.3,3.6-7.9,5.8c-6.9,5.9-6.5,8.7-5.3,13.7c7.5,31.5-2.4,30.9,0.5,58.6
		c0.4,4.4,1.5,7.8,2.8,13.5H734h10.2V497.9z"/>
	<path fill="#4E7737" d="M687.6,350.3l1.7,0.8c-1.8,2.2-3,4.6-4.6,7.3l2.1-1.5c-5,11.5-8.7,17.4-11.1,31.7l2.8-2.1
		c-1.2,6.7-1.6,11-1.6,18.2l3.6-7.3l-0.4,3.3c4.1-2.5,7-5,10-9.2c4.4-5.8,8.8-1.6,12-2.6c1.1-0.4,1.8-1.3,2.5-3.3
		c4.6,0.5,7.9-14,10.4-9.2c1.2,2.4,2.2,1.7,3,0.1c1.1-2,1.8-5.5,2.6-7.5c2.6,1.5,4.2,3.8,7.3,1.1c-1.1,2.4-1.8,5-2.4,8.2l1.1-1.8
		c-1.2,15.2,6.7,10,12.7,9.4c-1.3,2.4-2.6,4.4-2.6,9l1.5-2.8v2.6c1.1-2,2.1-2.6,3.3-2.8v2.4l3-1.7l-0.1,1.5
		c7.4-2.4,6.7-5.9,7.1-15.3c0.9-0.5,1.8-1.2,2.8-2.1c7.1-6.3,7.8-23.1,0.1-24.3c2.4-12-6.6-10.4-11.2-11.2
		C727.1,335.9,702.4,331.6,687.6,350.3L687.6,350.3z"/>
	<path fill="#4E7737" d="M830.9,341l-1.6,0.7c1.7,2.1,2.9,4.4,4.4,7l-2.1-1.5c4.8,11,8.3,16.4,10.6,30.1l-2.6-2
		c1.1,6.5,1.6,10.4,1.6,17.3l-3.4-7l0.3,3.2c-4-2.4-6.7-4.8-9.5-8.7c-4.1-5.5-8.4-1.6-11.4-2.5c-0.9-0.4-1.8-1.2-2.4-3.2
		c-4.4,0.5-7.5-13.3-10-8.7c-1.1,2.1-2.1,1.6-2.9,0.1c-1.1-1.8-1.8-5.1-2.5-7c-2.5,1.3-4,3.6-7,0.9c0.9,2.1,1.7,4.8,2.2,7.8
		l-0.9-1.8c1.1,14.4-6.5,9.5-12.1,8.8c1.3,2.2,2.5,4.1,2.6,8.4l-1.3-2.6v2.5c-1.1-1.8-2.1-2.6-3-2.6v2.4l-2.8-1.6l0.1,1.5
		c-7-2.2-6.3-5.7-6.7-14.5c-0.9-0.5-1.7-1.1-2.6-1.8c-6.7-6.1-7.3-21.8-0.1-23.1c-2.2-11.4,6.3-9.9,10.7-10.7
		C793.4,327.4,816.9,323.3,830.9,341L830.9,341z"/>
	<path fill="#3D5B2B" d="M736.5,341.9c0.8-12.1-6.7-11.5-12.7-7.8l2.5-0.4c-1.3,2.4-2.4,4.1-4,5.8c-4.9-4.2-8.7-4.8-14.1-3.7h3.3
		c-3.3,1.1-6.7,2-8.8,5.4l3.7-1.1c-2.6,1.8-3.4,2.8-5.3,6.5h2.2c-6.6,3.7-9.6,7-12.4,16.4l2.9-2.8l-1.6,3.3c6.3,0,11-4,16.4-8.2
		l-3.7,4.8c4.4-1.3,7.4-1.8,11.9-1.3c-5.8,0.9-9.8,3.2-13.2,11.9l5.5-2.6l-1.8,3.3c2.1-0.9,4.1-1.8,5.9-1.7c2.8,0.4,3,1.6,6.1,0.7
		l4.1-2l-1.1,1.7c7-1.8,8.7-5.3,13.2-11c2.1-2.6,3.8-3,6.2-3.3c2.6-0.4,4.8-2.5,7.1-4.1l-0.7,4.4c6.7-7.8,10.4-7.7,5.8-15
		C748.4,332.2,742.2,336.3,736.5,341.9L736.5,341.9z"/>
	<path fill="#3D5B2B" d="M828.7,367.1l-6.3-8.1l-8.7-6.7l2.8-0.9l-5.1-0.9l-7-1.8l3-3c-9.8-1.6-19.5-0.7-29,5.8l1.5-2.9
		c-8.4,5.5-11.7,9-11.7,13.5c0.1,11.6,7.8,17,11.7,17.7l5.3-0.5c-5.7,11.9,7.5,9.9,10.2,9.1c2.4,11.5,11,4.4,16-0.7
		c3.4-3.4,6.7-1.6,10.4-1.1l-1.6-3.8c1.3,0.4,2.4,0.9,3.6,1.7c5.3,3.6,6.2,5.5,0.7-2.8c-1.3-1.8-2.6-3.8-4-5.7l4.6,0.7
		c3.3,0.7,6.1,3.6,2.1-3C835.1,374.9,836.8,377.3,828.7,367.1L828.7,367.1z"/>
	<path fill="#3D5B2B" d="M695.6,370.9l6.3-8.1l8.7-6.7l-2.8-0.9l5.1-0.9l7-1.8l-3-3c9.8-1.6,19.5-0.7,29,5.8l-1.5-2.9
		c8.4,5.5,11.7,9,11.7,13.5c-0.1,11.6-7.8,17-11.7,17.7l-5.3-0.5c5.7,11.9-7.5,9.9-10.2,9.1c-2.4,11.5-11,4.4-16-0.7
		c-3.4-3.4-6.7-1.6-10.4-1.1l1.6-3.8c-1.3,0.4-2.4,0.9-3.6,1.7c-5.3,3.6-6.2,5.5-0.7-2.8c1.3-1.8,2.6-3.8,4-5.7l-4.6,0.7
		c-3.3,0.7-6.1,3.6-2.1-3C689.4,378.8,687.6,381.1,695.6,370.9L695.6,370.9z"/>
	<path fill="#3D5B2B" d="M674.6,376.1l4.9-9l7.5-8.1l-2.9-0.5l4.9-1.8l6.6-3L692,351c9.5-3.2,19.3-4,29.7,0.9l-1.8-2.6
		c9.2,4.1,13.1,6.7,13.7,11.4c1.8,11.5-4.8,18.1-8.7,19.4l-5.3,0.4c7.5,10.7-5.8,11-8.4,10.7c-0.4,11.7-10,6.1-15.8,2
		c-4-2.8-6.9-0.4-10.4,0.8l0.9-4.1c-1.2,0.7-2.2,1.3-3.2,2.4c-4.6,4.5-5.1,6.5-1.1-2.6c0.9-2.1,1.8-4.1,3-6.3l-4.4,1.5
		c-3,1.2-5.3,4.5-2.6-2.8C669.7,384.9,668.5,387.4,674.6,376.1L674.6,376.1z"/>
	<path fill="#3D5B2B" d="M600.1,446.2l-0.8-3l-1.7-3l0.9,0.1l-1.3-0.9l-1.8-1.5l1.3-0.5c-1.6-1.1-3.3-1.8-5.3-2.1
		c-0.9-0.8-2.4-1.1-5-1.1l0.9,0.5c-3.6,0-6.3,1.5-8.7,3.6l1.3,0.3l-1.6,1.7l-1.2,1.1l0.9-0.3l-1.1,3.3l-0.3,3.2
		c-0.4,4.1-0.3,3.2,1.6,1.3c0.1,2.4,0.4,1.2,1.1,0.4l1.1-1.1c0,0.8-0.1,1.5-0.1,2.1c0,3.2-0.1,2.5,0.7,0.7c0.1-0.4,0.4-0.8,0.7-1.1
		l0.3,1.3c0.9-0.8,1.3-1.8,2.9-1.6c0.9,0.1,2.2,0.4,3.2,0.3c0.9,0.9,3,0.4,4.5-0.3c1.5-0.5,2.1,0.4,3.2,1.1v-1.3
		c0.4,0.3,0.7,0.7,0.8,0.9c1.1,1.7,1.1,2.4,0.5-0.7c-0.1-0.7-0.3-1.3-0.4-2.1l1.2,0.8c0.9,0.7,1.3,1.8,1.1-0.7
		C600.9,449.2,601.2,450.1,600.1,446.2z"/>
	<path fill="#3D5B2B" d="M653.7,446.7l-0.8-3.2l-1.6-3.2l0.9,0.1l-1.3-1.1l-1.7-1.6l1.3-0.4c-1.6-1.1-3.3-2-5.1-2.4
		c-0.9-0.9-2.2-1.1-4.9-1.3l0.9,0.5c-3.6-0.3-6.5,1.1-8.8,3l1.3,0.4l-1.6,1.6l-1.2,1.1l0.9-0.1l-1.3,3.3l-0.4,3.2
		c-0.5,4.1-0.4,3.2,1.5,1.3c0,2.4,0.3,1.2,1.1,0.5l1.1-0.9c-0.1,0.8-0.1,1.5-0.1,2.1c-0.1,3.2-0.3,2.5,0.7,0.7
		c0.1-0.4,0.4-0.7,0.7-1.1l0.1,1.3c0.9-0.8,1.6-1.8,3-1.3c0.9,0.3,2.1,0.5,3,0.4c0.8,0.9,2.9,0.4,4.5,0c1.5-0.5,2.1,0.5,3,1.2
		l0.1-1.3c0.4,0.3,0.5,0.7,0.8,1.1c0.9,1.8,0.9,2.4,0.7-0.7c-0.1-0.7-0.1-1.5-0.4-2.1l1.2,0.9c0.9,0.7,1.2,1.8,1.1-0.7
		C654.4,449.9,654.5,450.8,653.7,446.7z"/>
	<path fill="#3D5B2B" d="M796.9,359.4c-4.6,1.5-8.4,1.3-10.7,7.3l1.2,0.1c-2.6,3.4-3.6,7.7-4.1,14.1l3.4-3.2l-1.6,5.3l4.5-0.4
		l-1.2,3.2c4.1-0.7,6.5-2.8,10.3-4.6c1.6-0.7,3-1.1,4.6-0.1c5.4,2.8,11.6,6.5,16.9,3c1.1,6.5,4.6-0.5,5.9-2.1c0.9-1.1,2,0.4,4.1-1.7
		c0.7-0.7,0.9-1.8,2.1-4.6c0.4-0.9,1.1-1.3,2.6-2.4c4.1-2.8,4.4-7,2.9-11.5c-1.8-5.3-6.3-10.7-10.4-14.4c-2.6-2.4-5.1-2.6-10.4-2.8
		c3,0.4,5.4,0.8,8.3,2.4c-7.8-1.6-15.2-0.1-22,5.5l2.9-1.3c6.3-2.8-4.6,5.5-5.7,6.3C820,357.2,793.6,365.8,796.9,359.4L796.9,359.4z
		"/>
	<path fill="#3D5B2B" d="M813.4,386.8c4.2,2.2,7,5,12.7,2.5l-0.7-0.9c4.4-0.7,7.9-2.8,12.8-7l-4.6-0.1l4.8-2.6l-3.4-2.8l3-1.5
		c-3.4-2.4-6.5-2.6-10.6-4.1c-1.6-0.5-2.8-1.5-3.4-3c-1.8-5.8-3.6-12.8-9.8-14c3.8-5.4-3.7-2.9-5.7-2.8c-1.5,0.1-1.1-1.6-4.1-1.7
		c-0.9,0-1.8,0.7-4.8,1.7c-0.9,0.4-1.6,0.1-3.4-0.1c-4.8-0.9-8.1,1.8-10.2,6.1c-2.4,5-3,12-2.8,17.7c0.1,3.6,1.7,5.5,5.4,9.4
		c-1.8-2.5-3.3-4.4-4.1-7.5c4.4,6.6,10.6,10.8,19.5,11.6l-3-1.2c-6.3-2.5,7.3-0.7,8.4-0.4C795.3,372,820,384.5,813.4,386.8
		L813.4,386.8z"/>
	<path fill="#3D5B2B" d="M803.7,356.8c4.2,2.2,7,5,12.7,2.5l-0.7-0.9c4.4-0.7,7.9-2.8,12.8-7l-4.6-0.1l4.8-2.6l-3.4-2.8l3-1.5
		c-3.4-2.4-6.5-2.6-10.6-4.1c-1.6-0.5-2.8-1.5-3.4-3c-1.8-5.8-3.6-12.8-9.8-14c3.8-5.4-3.7-2.9-5.7-2.8c-1.5,0.1-1.1-1.6-4.1-1.7
		c-0.9,0-1.8,0.7-4.8,1.7c-0.9,0.4-1.6,0.1-3.4-0.1c-4.8-0.9-8.1,1.8-10.2,6.1c-2.4,5-3,12-2.8,17.7c0.1,3.6,1.7,5.5,5.4,9.4
		c-1.8-2.5-3.3-4.4-4.1-7.5c4.4,6.6,10.6,10.8,19.5,11.6l-3-1.2c-6.3-2.5,7.3-0.7,8.4-0.4C785.7,342,810.3,354.6,803.7,356.8
		L803.7,356.8z"/>
	<line fill="none" stroke="#FFFFFF" stroke-width="3" stroke-miterlimit="10" x1="573.3" y1="549.6" x2="581.6" y2="405.5"/>
	<line fill="none" stroke="#FFFFFF" stroke-width="3" stroke-miterlimit="10" x1="656.4" y1="549.6" x2="648" y2="405.5"/>
</g>
</svg>
