<?xml version="1.0" encoding="utf-8"?>
<!-- Generator: Adobe Illustrator 17.1.0, SVG Export Plug-In . SVG Version: 6.00 Build 0)  -->
<!DOCTYPE svg PUBLIC "-//W3C//DTD SVG 1.1//EN" "http://www.w3.org/Graphics/SVG/1.1/DTD/svg11.dtd">
<svg version="1.1" id="Layer_1" xmlns="http://www.w3.org/2000/svg" xmlns:xlink="http://www.w3.org/1999/xlink" x="0px" y="0px"
	 viewBox="0 402.6 192.6 197.4" enable-background="new 0 402.6 192.6 197.4" xml:space="preserve">
<path fill="#5480C1" stroke="#5480C1" stroke-miterlimit="10" d="M41.6,588.6h111.3c15.7,0,28.4-12.7,28.4-28.4V440.4
	c0-15.7-12.7-28.4-28.4-28.4H41.6c-15.7,0-28.4,12.7-28.4,28.4v119.9C13.2,575.9,25.9,588.6,41.6,588.6z"/>
<g opacity="0.71" enable-background="new    ">
	<g>
		<defs>
			<path id="SVGID_1_" d="M41.6,588.6h111.3c15.7,0,28.4-12.7,28.4-28.4V440.4c0-15.7-12.7-28.4-28.4-28.4H41.6
				c-15.7,0-28.4,12.7-28.4,28.4v119.9C13.2,575.9,25.9,588.6,41.6,588.6z"/>
		</defs>
		<clipPath id="SVGID_2_">
			<use xlink:href="#SVGID_1_"  overflow="visible"/>
		</clipPath>
		<path clip-path="url(#SVGID_2_)" d="M281.3,608.1c-0.4-0.5-0.9-1-1.5-1.5c-0.4-0.5-0.9-1-1.5-1.5c-0.4-0.5-0.9-1-1.5-1.5
			c-0.4-0.5-0.9-1-1.5-1.5c-0.4-0.5-0.9-1-1.5-1.5c-0.4-0.5-0.9-1-1.5-1.5c-0.4-0.5-0.9-1-1.5-1.5c-0.4-0.5-0.9-1-1.5-1.5
			c-0.4-0.5-0.9-1-1.5-1.5c-0.4-0.5-0.9-1-1.5-1.5c-0.4-0.5-0.9-1-1.5-1.5c-0.4-0.5-0.9-1-1.5-1.5c-0.4-0.5-0.9-1-1.5-1.5
			c-0.4-0.5-0.9-1-1.5-1.5c-0.4-0.5-0.9-1-1.5-1.5c-0.4-0.5-0.9-1-1.5-1.5c-0.4-0.5-0.9-1-1.5-1.5c-0.4-0.5-0.9-1-1.5-1.5
			c-0.4-0.5-0.9-1-1.5-1.5c-0.4-0.5-0.9-1-1.5-1.5c-0.4-0.5-0.9-1-1.5-1.5c-0.4-0.5-0.9-1-1.5-1.5c-0.4-0.5-0.9-1-1.5-1.5
			c-0.4-0.5-0.9-1-1.5-1.5c-0.4-0.5-0.9-1-1.5-1.5c-0.4-0.5-0.9-1-1.5-1.5c-0.4-0.5-0.9-1-1.5-1.5c-0.4-0.5-0.9-1-1.5-1.5
			c-0.4-0.5-0.9-1-1.5-1.5c-0.4-0.5-0.9-1-1.5-1.5c-0.4-0.5-0.9-1-1.5-1.5c-0.4-0.5-0.9-1-1.5-1.5c-0.4-0.5-0.9-1-1.5-1.5
			c-0.4-0.5-0.9-1-1.5-1.5c-0.4-0.5-0.9-1-1.5-1.5c-0.4-0.5-0.9-1-1.5-1.5c-0.4-0.5-0.9-1-1.5-1.5c-0.4-0.5-0.9-1-1.5-1.5
			c-0.4-0.5-0.9-1-1.5-1.5c-0.4-0.5-0.9-1-1.5-1.5c-0.4-0.5-0.9-1-1.5-1.5c-0.4-0.5-0.9-1-1.5-1.5c-0.4-0.5-0.9-1-1.5-1.5
			c-0.4-0.5-0.9-1-1.5-1.5c-0.4-0.5-0.9-1-1.5-1.5c-0.4-0.5-0.9-1-1.5-1.5c-0.4-0.5-0.9-1-1.5-1.5c-0.4-0.5-0.9-1-1.5-1.5
			c-0.4-0.5-0.9-1-1.5-1.5c-0.4-0.5-0.9-1-1.5-1.5c-0.4-0.5-0.9-1-1.5-1.5c-0.4-0.5-0.9-1-1.5-1.5c-0.4-0.5-0.9-1-1.5-1.5
			c-0.4-0.5-0.9-1-1.5-1.5c-0.4-0.5-0.9-1-1.5-1.5c-0.4-0.5-0.9-1-1.5-1.5c-0.4-0.5-0.9-1-1.5-1.5c-0.4-0.5-0.9-1-1.5-1.5
			c-0.4-0.5-0.9-1-1.5-1.5c-0.4-0.5-0.9-1-1.5-1.5c-0.4-0.5-0.9-1-1.5-1.5c-0.4-0.5-0.9-1-1.5-1.5c-0.4-0.5-0.9-1-1.5-1.5
			c-0.4-0.5-0.9-1-1.5-1.5c-0.4-0.5-0.9-1-1.5-1.5c-0.4-0.5-0.9-1-1.5-1.5c-0.4-0.5-0.9-1-1.5-1.5c-0.4-0.5-0.9-1-1.5-1.5
			c-0.4-0.5-0.9-1-1.5-1.5c-0.4-0.5-0.9-1-1.5-1.5c-0.4-0.5-0.9-1-1.5-1.5c-0.4-0.5-0.9-1-1.5-1.5c-0.4-0.5-0.9-1-1.5-1.5
			c-0.4-0.5-0.9-1-1.5-1.5c-0.4-0.5-0.9-1-1.5-1.5c-0.4-0.5-0.9-1-1.5-1.5c-0.4-0.5-0.9-1-1.5-1.5c-0.4-0.5-0.9-1-1.5-1.5
			c-0.4-0.5-0.9-1-1.5-1.5c-0.4-0.5-0.9-1-1.5-1.5c-0.4-0.5-0.9-1-1.5-1.5c-0.4-0.5-0.9-1-1.5-1.5c-0.4-0.5-0.9-1-1.5-1.5
			c-0.4-0.5-0.9-1-1.5-1.5c-0.4-0.5-0.9-1-1.5-1.5c-0.4-0.5-0.9-1-1.5-1.5c-0.4-0.5-0.9-1-1.5-1.5c-0.4-0.5-0.9-1-1.5-1.5
			c-0.4-0.5-0.9-1-1.5-1.5c-0.4-0.5-0.9-1-1.5-1.5c-0.4-0.5-0.9-1-1.5-1.5c-0.4-0.5-0.9-1-1.5-1.5c-0.4-0.5-0.9-1-1.5-1.5
			c-0.4-0.5-0.9-1-1.5-1.5c-0.4-0.5-0.9-1-1.5-1.5c-0.4-0.5-0.9-1-1.5-1.5c-0.4-0.5-0.9-1-1.5-1.5c-0.4-0.5-0.9-1-1.5-1.5
			c-0.4-0.5-0.9-1-1.5-1.5c-0.4-0.5-0.9-1-1.5-1.5c-1.6-2.1-4.1-3.3-6.9-3.3c-4.8,0-8.8,4-8.8,8.8v27.5h-12.7
			c-0.2-0.2-0.6-0.6-1-0.9c-0.4-0.5-0.9-1-1.5-1.5c-0.4-0.5-0.9-1-1.5-1.5c-0.4-0.5-0.9-1-1.5-1.5c-0.4-0.5-0.9-1-1.5-1.5
			c-0.4-0.5-0.9-1-1.5-1.5c-0.4-0.5-0.9-1-1.5-1.5c-0.4-0.5-0.9-1-1.5-1.5c-0.4-0.5-0.9-1-1.5-1.5c-0.4-0.5-0.9-1-1.5-1.5
			c-0.4-0.5-0.9-1-1.5-1.5c-0.4-0.5-0.9-1-1.5-1.5c-0.4-0.5-0.9-1-1.5-1.5c-0.4-0.5-0.9-1-1.5-1.5c-0.4-0.5-0.9-1-1.5-1.5
			c-0.4-0.5-0.9-1-1.5-1.5c-0.4-0.5-0.9-1-1.5-1.5c-0.4-0.5-0.9-1-1.5-1.5c-0.4-0.5-0.9-1-1.5-1.5c-0.4-0.5-0.9-1-1.5-1.5
			c-0.4-0.5-0.9-1-1.5-1.5c-0.4-0.5-0.9-1-1.5-1.5c-1.6-2.1-4.1-3.3-6.9-3.3c-4.8,0-8.8,4-8.8,8.8v70.1c0,2.7,1.4,5.3,3.3,6.9
			c0.4,0.5,0.9,1,1.5,1.5c0.4,0.5,0.9,1,1.5,1.5c0.4,0.5,0.9,1,1.5,1.5c0.4,0.5,0.9,1,1.5,1.5c0.4,0.5,0.9,1,1.5,1.5
			c0.4,0.5,0.9,1,1.5,1.5c0.4,0.5,0.9,1,1.5,1.5c0.4,0.5,0.9,1,1.5,1.5c0.4,0.5,0.9,1,1.5,1.5c0.4,0.5,0.9,1,1.5,1.5
			c0.4,0.5,0.9,1,1.5,1.5c0.4,0.5,0.9,1,1.5,1.5c0.4,0.5,0.9,1,1.5,1.5c0.4,0.5,0.9,1,1.5,1.5c0.4,0.5,0.9,1,1.5,1.5
			c0.4,0.5,0.9,1,1.5,1.5c0.4,0.5,0.9,1,1.5,1.5c0.4,0.5,0.9,1,1.5,1.5c0.4,0.5,0.9,1,1.5,1.5c0.4,0.5,0.9,1,1.5,1.5
			c0.4,0.5,0.9,1,1.5,1.5c0.4,0.5,0.9,1,1.5,1.5c0.4,0.5,0.9,1,1.5,1.5c0.4,0.5,0.9,1,1.5,1.5c0.4,0.5,0.9,1,1.5,1.5
			c0.4,0.5,0.9,1,1.5,1.5c0.4,0.5,0.9,1,1.5,1.5c0.4,0.5,0.9,1,1.5,1.5c0.4,0.5,0.9,1,1.5,1.5c0.4,0.5,0.9,1,1.5,1.5
			c0.4,0.5,0.9,1,1.5,1.5c0.4,0.5,0.9,1,1.5,1.5c0.4,0.5,0.9,1,1.5,1.5c0.4,0.5,0.9,1,1.5,1.5c0.4,0.5,0.9,1,1.5,1.5
			c0.4,0.5,0.9,1,1.5,1.5c0.4,0.5,0.9,1,1.5,1.5c0.4,0.5,0.9,1,1.5,1.5c0.4,0.5,0.9,1,1.5,1.5c0.4,0.5,0.9,1,1.5,1.5
			c0.4,0.5,0.9,1,1.5,1.5c0.4,0.5,0.9,1,1.5,1.5c0.4,0.5,0.9,1,1.5,1.5c0.4,0.5,0.9,1,1.5,1.5c0.4,0.5,0.9,1,1.5,1.5
			c0.4,0.5,0.9,1,1.5,1.5c0.4,0.5,0.9,1,1.5,1.5c0.4,0.5,0.9,1,1.5,1.5c0.4,0.5,0.9,1,1.5,1.5c0.4,0.5,0.9,1,1.5,1.5
			c0.4,0.5,0.9,1,1.5,1.5c0.4,0.5,0.9,1,1.5,1.5c0.4,0.5,0.9,1,1.5,1.5c0.4,0.5,0.9,1,1.5,1.5c0.4,0.5,0.9,1,1.5,1.5
			c0.4,0.5,0.9,1,1.5,1.5c0.4,0.5,0.9,1,1.5,1.5c0.4,0.5,0.9,1,1.5,1.5c0.4,0.5,0.9,1,1.5,1.5c0.4,0.5,0.9,1,1.5,1.5
			c0.4,0.5,0.9,1,1.5,1.5c0.4,0.5,0.9,1,1.5,1.5c0.4,0.5,0.9,1,1.5,1.5c0.4,0.5,0.9,1,1.5,1.5c0.4,0.5,0.9,1,1.5,1.5
			c0.4,0.5,0.9,1,1.5,1.5c0.4,0.5,0.9,1,1.5,1.5c0.4,0.5,0.9,1,1.5,1.5c0.4,0.5,0.9,1,1.5,1.5c0.4,0.5,0.9,1,1.5,1.5
			c0.4,0.5,0.9,1,1.5,1.5c0.4,0.5,0.9,1,1.5,1.5c0.4,0.5,0.9,1,1.5,1.5c0.4,0.5,0.9,1,1.5,1.5c0.4,0.5,0.9,1,1.5,1.5
			c0.4,0.5,0.9,1,1.5,1.5c0.4,0.5,0.9,1,1.5,1.5c0.4,0.5,0.9,1,1.5,1.5c0.4,0.5,0.9,1,1.5,1.5c0.4,0.5,0.9,1,1.5,1.5
			c0.4,0.5,0.9,1,1.5,1.5c0.4,0.5,0.9,1,1.5,1.5c0.4,0.5,0.9,1,1.5,1.5c0.4,0.5,0.9,1,1.5,1.5c0.4,0.5,0.9,1,1.5,1.5
			c0.4,0.5,0.9,1,1.5,1.5c0.4,0.5,0.9,1,1.5,1.5c0.4,0.5,0.9,1,1.5,1.5c0.4,0.5,0.9,1,1.5,1.5c0.4,0.5,0.9,1,1.5,1.5
			c0.4,0.5,0.9,1,1.5,1.5c0.4,0.5,0.9,1,1.5,1.5c0.4,0.5,0.9,1,1.5,1.5c0.4,0.5,0.9,1,1.5,1.5c0.4,0.5,0.9,1,1.5,1.5
			c0.4,0.5,0.9,1,1.5,1.5c0.4,0.5,0.9,1,1.5,1.5c0.4,0.5,0.9,1,1.5,1.5c0.4,0.5,0.9,1,1.5,1.5c0.4,0.5,0.9,1,1.5,1.5
			c1.6,2.1,4.1,3.3,6.9,3.3c4.8,0,8.8-4,8.8-8.8v-26.3h14c0.2,0.2,0.6,0.6,1,0.9c0.4,0.5,0.9,1,1.5,1.5c0.4,0.5,0.9,1,1.5,1.5
			c0.4,0.5,0.9,1,1.5,1.5c0.4,0.5,0.9,1,1.5,1.5c0.4,0.5,0.9,1,1.5,1.5c0.4,0.5,0.9,1,1.5,1.5c0.4,0.5,0.9,1,1.5,1.5
			c0.4,0.5,0.9,1,1.5,1.5c0.4,0.5,0.9,1,1.5,1.5c0.4,0.5,0.9,1,1.5,1.5c0.4,0.5,0.9,1,1.5,1.5c0.4,0.5,0.9,1,1.5,1.5
			c0.4,0.5,0.9,1,1.5,1.5c0.4,0.5,0.9,1,1.5,1.5c0.4,0.5,0.9,1,1.5,1.5c0.4,0.5,0.9,1,1.5,1.5c0.4,0.5,0.9,1,1.5,1.5
			c0.4,0.5,0.9,1,1.5,1.5c0.4,0.5,0.9,1,1.5,1.5c0.4,0.5,0.9,1,1.5,1.5c0.4,0.5,0.9,1,1.5,1.5c1.6,2.1,4.1,3.3,6.9,3.3
			c4.8,0,8.8-4,8.8-8.8v-70.1C284.6,612.3,283.3,609.7,281.3,608.1z"/>
	</g>
</g>
<rect x="51.7" y="449.1" fill="none" width="90.9" height="102.5"/>
<text transform="matrix(1 0 0 1 49.7521 543.5317)" fill="#FFFFFF" font-family="'GeometrySoftPro-BoldN'" font-size="137.0568">H</text>
</svg>
