<?xml version="1.0" encoding="utf-8"?>
<!-- Generator: Adobe Illustrator 17.1.0, SVG Export Plug-In . SVG Version: 6.00 Build 0)  -->
<!DOCTYPE svg PUBLIC "-//W3C//DTD SVG 1.1//EN" "http://www.w3.org/Graphics/SVG/1.1/DTD/svg11.dtd">
<svg version="1.1" id="Layer_2" xmlns="http://www.w3.org/2000/svg" xmlns:xlink="http://www.w3.org/1999/xlink" x="0px" y="0px"
	 viewBox="0 315.4 1224 642.5" enable-background="new 0 315.4 1224 642.5" xml:space="preserve">
<ellipse fill="#D69696" cx="615.4" cy="452.6" rx="430.3" ry="137.2"/>
<path fill="#D69696" d="M905.3,583.4c-244.2,55.6-418,26.9-462.9,21.2s-232.7-15.3-300.1-140.9l-107.1,293
	c0,0-7.7,144.2,412.9,188.5c126.9,17.9,272,16.1,384.8,0c96.9-12.8,368.6-58.4,391-188.5c-61.7-158.3-133.4-293-133.4-293
	S1077.8,544.3,905.3,583.4z"/>
<path fill="none" d="M0,525.7c0,0-7.7,253.1,412.9,297.5c126.9,17.9,272,16.1,384.8,0c96.9-12.8,368.6-103.2,391-233.4"/>
<g>
	<path fill="#FFFFFF" d="M300.6,766.6c2.9-2.6,9.4-2.5,10.9-6.5c8.9-27.3,14.4-56.2,19.8-85.9c0.9-2.9-2.3-7.3-3.3-11
		c-0.7-1.3,1.2-4.1,1.5-5.1c4.4-7.6,13.8-5.9,18.9-3.3c9.2,2.7,19.6,8.2,27,17c9.9,11.9,16.6,23.6,22.1,38.9
		c14,39.7-21.9,73.7-57.4,79.7c-11.7,2.3-23.9,1.8-33.8-5.6C300.8,780.9,296.6,772,300.6,766.6z M357.9,764.7
		c10.6-9.2,22.8-20,21.9-34.8c-0.8-16.8-9.5-37.8-27.5-45.5c-2.4,8-22.8,85.5-20.7,86.1C340.3,775.3,352.3,769.6,357.9,764.7z"/>
	<path fill="#FFFFFF" d="M427.9,696.3c17.7-17.7,51.1-14,68.6,6c3.8,4.3-2.1,11.4-10.3,11.1c-10.6-0.7-19.5-10.9-30.5-8.3
		c-13.7,3.3-6.8,23.6-13.6,34.1c13.3,11,37.9,0.2,42.2,21c-12.2,14.4-32.4-2.3-43.7,6.1c-9.2,6.7-8.2,24.4-9.5,38.2
		c17.7,6.9,35.9-2.5,54.1-3.9c1.2-1.1,3,1.8,4,3.1c0.7,8.6-4,14.6-11.2,15.8c-19.5,3-37.4,9.4-56.5,4.7c-5.5-2.3-14.1-1.6-14-7.5
		c-2.2-19.4,8.2-36.4,6.9-55.4c-0.3-3.9-5.4-9.5-1.1-13.3c0.2-1.2,2.6-1.8,4.1-2.8c3.1-4.3,3.2-10.2,4-14.6
		C423.6,719.3,419.4,704.4,427.9,696.3z"/>
	<path fill="#FFFFFF" d="M508.2,803.6c16.7-14.8,40.8-20.9,52.8-40.1c-14.6-19.4-23.3-40-38-60.5c-9.2-12.8,13.7-23.1,20.9-17
		c18.9,15.4,26.2,41.2,39.2,62.1c11-5.8,17.1-17.3,28.1-23.1c8.1-3.5,14.7-4.3,22.2,0c1.4,1.6,2.4,5.5,1,8.1
		c-9.1,15-27.9,20.3-39.2,34.2c11.6,23,24.4,45.1,33.5,68c3.2,8.3-4.6,11.8-11.6,15.1c-5.2,2.4-11.8-0.8-14-6.3
		c-6.6-21.4-18.4-40.7-30.3-58.7c-20.3,9.2-38.1,36.8-62.6,28.5C506,812.8,506.7,806,508.2,803.6z"/>
	<path fill="#FFFFFF" d="M684.4,842c-4.8-41.6,2.3-83.7-0.3-125.5c-0.4-6-8.6-0.7-12.3,0.7c-7.2,1.7-15.3,10.5-22.8,7.4
		c-8.8-3.3-8.2-14.9,0.1-19.7c37.1-21.4,55.4-15.5,95.7-20.2c1.3-0.1,2.7,3.4,3.8,4.6c3,7.4-2.7,13.8-9.8,16.8
		c-17.1,4.6-11,1.7-26.8,3.9c-6,42-5,83.9-3.5,125.4c0.4,6.3-8,10.3-13.8,13.2C689,851.3,684.8,845.5,684.4,842z"/>
	<path fill="#FFFFFF" d="M765.5,711.7c10.4-22.8,43-31,66.4-18.4c5.1,2.7,2,11.4-5.8,14c-10.2,3-22.1-3.3-31.5,2.9
		c-11.7,7.9,1.9,24.5-0.8,36.7c16.3,5.6,35.6-13.1,46.9,4.9c-6.4,17.7-31.1,9.2-38.8,21c-6.3,9.5,0.9,25.7,4.5,39.1
		c19,0.3,32.7-14.9,49.3-22.6c0.8-1.4,3.4,0.7,4.9,1.5c3.7,7.8,1.3,15.1-4.9,18.8c-17.3,9.6-31.8,21.9-51.3,24.2
		c-5.9-0.3-13.7,3.4-15.7-2.1c-8.9-17.4-5.1-37-13-54.3c-1.6-3.6-8.4-7-5.7-12.1c-0.2-1.2,1.8-2.6,2.9-4.1
		c1.4-5.1-0.6-10.6-1.3-15.1C769.5,734.8,760.4,722.3,765.5,711.7z"/>
	<path fill="#FFFFFF" d="M860.8,689.7c-2.9-5.5-8.6-12.7-3.8-17.8c24.1-25.7,65.8-21.1,91.2,1.8c15,13.3-0.2,34.1-11.7,47.3
		c11.6,23.2,26.2,46.8,43.8,65.6c5.6,6-8.3,15.2-15.5,12c-26.1-11.5-28.8-45-52.1-59.6c-4.4-2.7-16.2,1-17.3,6.2
		c-0.5,20.3,16.1,37.1,22.1,55.5c1.6,4.5-6.9,10.9-14.2,11.6c-3.7-0.2-7.1-3-9-5c-14-18.8-18.4-42.7-24.7-64.8
		C864.6,725.3,871,703.3,860.8,689.7z M892.5,721c15-0.6,30-9.8,37.8-22c2.1-1.9,5.6-6.8,2.3-9.6c-10.8-12.1-27.6-13.4-40.9-11.2
		c-9.5,1.7-2.7,17.3-2.9,24.9C888.4,709.3,886.3,721.2,892.5,721z"/>
</g>
</svg>
