<?xml version="1.0" encoding="utf-8"?>
<!-- Generator: Adobe Illustrator 17.1.0, SVG Export Plug-In . SVG Version: 6.00 Build 0)  -->
<!DOCTYPE svg PUBLIC "-//W3C//DTD SVG 1.1//EN" "http://www.w3.org/Graphics/SVG/1.1/DTD/svg11.dtd">
<svg version="1.1" id="Layer_2" xmlns="http://www.w3.org/2000/svg" xmlns:xlink="http://www.w3.org/1999/xlink" x="0px" y="0px"
	 viewBox="-5.1 209.7 500 262.5" enable-background="new -5.1 209.7 500 262.5" xml:space="preserve">
<ellipse fill="#91ACBF" cx="246.3" cy="265.8" rx="175.7" ry="56.1"/>
<path fill="#91ACBF" d="M364.8,319.2c-99.8,22.8-170.8,11-189.1,8.7c-18.3-2.3-95.1-6.2-122.6-57.6L9.3,390c0,0-3.2,58.9,168.7,77
	c51.8,7.3,111.1,6.6,157.2,0c39.6-5.2,150.6-23.8,159.8-77c-25.2-64.7-54.5-119.7-54.5-119.7S435.2,303.2,364.8,319.2z"/>
<path fill="none" d="M-5.1,295.6c0,0-3.2,103.4,168.7,121.5c51.8,7.3,111.1,6.6,157.2,0c39.6-5.2,150.6-42.2,159.8-95.3"/>
<text transform="matrix(0.9845 0.1755 -0.1755 0.9845 120.3941 410.5968)" fill="#FFFFFF" font-family="'GoodDog'" font-size="83.8169">D</text>
<text transform="matrix(0.9845 0.1755 -0.1755 0.9845 166.7355 417.7914)" fill="#FFFFFF" font-family="'GoodDog'" font-size="83.8169">e</text>
<text transform="matrix(0.9845 0.1755 -0.1755 0.9845 210.1364 422.0717)" fill="#FFFFFF" font-family="'GoodDog'" font-size="83.8169">x</text>
<text transform="matrix(0.9845 0.1755 -0.1755 0.9845 264.9102 422.256)" fill="#FFFFFF" font-family="'GoodDog'" font-size="83.8169">t</text>
<text transform="matrix(0.9845 0.1755 -0.1755 0.9845 314.2593 418.548)" fill="#FFFFFF" font-family="'GoodDog'" font-size="83.8169">e</text>
<text transform="matrix(0.9845 0.1755 -0.1755 0.9845 358.8532 408.6745)" fill="#FFFFFF" font-family="'GoodDog'" font-size="83.8169">r</text>
</svg>
